<svg width="100" height="100" viewBox="0 0 100 100" fill="none" xmlns="http://www.w3.org/2000/svg">
<rect width="100" height="100" fill="#1E1E1E"/>
<rect width="100" height="100" rx="15" fill="black"/>
<path d="M52.974 30.596C44.7553 30.596 40.646 37.6533 40.646 51.768C40.646 58.9147 41.7627 63.9173 43.996 66.776C46.3187 69.5453 49.624 70.93 53.912 70.93C60.7013 70.93 66.6867 70.3047 71.868 69.054L75.888 79.372C73.0293 81.248 69.188 82.856 64.364 84.196C59.54 85.4467 54.85 86.072 50.294 86.072C30.998 86.072 21.35 74.9053 21.35 52.572C21.35 39.5293 24.7 30.1493 31.4 24.432C37.3853 19.4293 44.666 16.928 53.242 16.928C61.818 16.928 68.9647 18.536 74.682 21.752C74.7713 22.6453 74.816 23.494 74.816 24.298C74.816 29.39 73.6547 34.214 71.332 38.77H59.54C58.2893 36.5367 57.53 33.8567 57.262 30.73C56.19 30.6407 54.7607 30.596 52.974 30.596Z" fill="white"/>
</svg>
