<svg width="108" height="108" viewBox="0 0 108 108" fill="none" xmlns="http://www.w3.org/2000/svg">
<g filter="url(#filter0_d_0_1)">
<path d="M4 16C4 7.16345 11.1634 0 20 0H88C96.8366 0 104 7.16344 104 16V84C104 92.8366 96.8366 100 88 100H20C11.1634 100 4 92.8366 4 84V16Z" fill="black"/>
<path d="M20 0.5H88C96.5604 0.5 103.5 7.43959 103.5 16V84C103.5 92.5604 96.5604 99.5 88 99.5H20C11.4396 99.5 4.5 92.5604 4.5 84V16C4.5 7.43959 11.4396 0.5 20 0.5Z" stroke="black"/>
</g>
<path d="M40.89 41.39C41.6833 41.6233 42.1967 42.0667 42.43 42.72C42.6633 43.3267 42.7333 43.98 42.64 44.68C42.36 46.1267 41.5667 47.0133 40.26 47.34C39.5133 47.5267 38.7433 47.62 37.95 47.62C37.2033 47.62 36.4333 47.6433 35.64 47.69V63.86C35.64 64.98 35.57 66.1233 35.43 67.29C35.43 67.71 35.3133 68.1533 35.08 68.62C34.9867 68.8533 34.9167 68.9933 34.87 69.04C34.87 69.1333 34.8233 69.2733 34.73 69.46C34.45 69.9733 34.0767 70.3933 33.61 70.72C32.5833 71.28 31.4867 71.42 30.32 71.14C29.62 71 29.0833 70.7667 28.71 70.44C28.29 70.1133 27.9867 69.7167 27.8 69.25C27.7067 69.0167 27.6367 68.7833 27.59 68.55C27.5433 68.3167 27.4733 68.0833 27.38 67.85C27.3333 67.6167 27.2867 67.4067 27.24 67.22C27.24 66.9867 27.24 66.8 27.24 66.66V62.6C27.24 60.1733 27.24 57.6533 27.24 55.04C27.2867 52.4267 27.31 49.9067 27.31 47.48C26.2367 47.4333 25.1167 47.41 23.95 47.41C22.83 47.3633 22.0133 47.0833 21.5 46.57C21.22 46.29 21.0333 45.94 20.94 45.52C20.8467 45.0533 20.8 44.5867 20.8 44.12C20.8467 43.6533 20.94 43.2333 21.08 42.86C21.22 42.44 21.4067 42.1367 21.64 41.95C22.2467 41.39 22.7833 41.0867 23.25 41.04C23.7633 40.9467 24.3933 40.8767 25.14 40.83C25.2333 40.83 25.5367 40.83 26.05 40.83C26.61 40.7833 26.96 40.76 27.1 40.76C27.1467 39.1733 27.1933 37.5867 27.24 36C27.2867 34.4133 27.4267 32.9667 27.66 31.66C27.94 30.3067 28.3367 29.14 28.85 28.16C29.41 27.1333 30.25 26.3633 31.37 25.85C32.7233 25.2433 34.2633 24.87 35.99 24.73C37.7167 24.59 39.28 24.8 40.68 25.36C41.3333 25.5933 41.9633 26.06 42.57 26.76C43.2233 27.46 43.5267 28.23 43.48 29.07C43.4333 29.91 43.27 30.68 42.99 31.38C42.71 32.08 42.1033 32.5467 41.17 32.78C40.75 32.8733 40.3067 32.92 39.84 32.92C39.42 32.8733 38.9767 32.85 38.51 32.85C38.0433 32.85 37.6 32.92 37.18 33.06C36.8067 33.1533 36.48 33.3633 36.2 33.69C35.9667 33.97 35.8033 34.3433 35.71 34.81C35.6633 35.2767 35.6167 35.7667 35.57 36.28C35.5233 36.7933 35.5 37.3067 35.5 37.82C35.5467 38.2867 35.57 38.6833 35.57 39.01V40.76C36.6433 40.8533 37.6233 40.9233 38.51 40.97C39.4433 41.0167 40.2367 41.1567 40.89 41.39ZM85.7791 39.5C86.1991 40.1067 86.3391 41.0633 86.1991 42.37C86.1058 43.63 85.8725 45.0067 85.4991 46.5C85.1258 47.9467 84.6825 49.3933 84.1691 50.84C83.6558 52.24 83.2358 53.4067 82.9091 54.34C82.1158 56.4867 81.4158 58.4933 80.8091 60.36C80.2025 62.2267 79.4791 64.28 78.6391 66.52C78.3591 67.1733 78.0791 67.8267 77.7991 68.48C77.5658 69.1333 77.2625 69.7167 76.8891 70.23C76.5625 70.7433 76.1425 71.1633 75.6291 71.49C75.1625 71.8167 74.5791 71.98 73.8791 71.98C73.0858 71.98 72.3858 71.7 71.7791 71.14C71.2191 70.58 70.7291 69.88 70.3091 69.04C69.9358 68.2 69.6091 67.3133 69.3291 66.38C69.0491 65.4467 68.8158 64.63 68.6291 63.93C68.0225 61.8767 67.4858 60.01 67.0191 58.33C66.5525 56.6033 66.1325 55.0633 65.7591 53.71C65.3391 55.0633 64.9191 56.5333 64.4991 58.12C64.0791 59.7067 63.5425 61.5033 62.8891 63.51C62.7025 64.21 62.4691 65.0733 62.1891 66.1C61.9091 67.08 61.5591 68.0133 61.1391 68.9C60.7658 69.7867 60.2758 70.5333 59.6691 71.14C59.1091 71.7933 58.4325 72.0733 57.6391 71.98C56.5191 71.9333 55.5391 71.49 54.6991 70.65C53.9058 69.7633 53.2058 68.7133 52.5991 67.5C52.0391 66.2867 51.5491 65.0267 51.1291 63.72C50.7091 62.4133 50.3591 61.27 50.0791 60.29C49.7058 59.03 49.2625 57.63 48.7491 56.09C48.2358 54.55 47.7225 52.9867 47.2091 51.4C46.7425 49.7667 46.2991 48.1567 45.8791 46.57C45.4591 44.9367 45.1791 43.4433 45.0391 42.09C44.9458 41.2033 45.1091 40.3867 45.5291 39.64C45.9958 38.8933 46.5791 38.38 47.2791 38.1C48.0258 37.7733 48.8191 37.7033 49.6591 37.89C50.5458 38.0767 51.3391 38.6367 52.0391 39.57C52.4125 40.0367 52.7391 40.62 53.0191 41.32C53.3458 42.02 53.6258 42.79 53.8591 43.63C54.0925 44.4233 54.3258 45.24 54.5591 46.08C54.7925 46.92 55.0258 47.7367 55.2591 48.53C55.7725 50.3033 56.1925 51.7033 56.5191 52.73C56.8925 53.71 57.2658 54.7367 57.6391 55.81C57.9658 54.7367 58.2925 53.71 58.6191 52.73C58.9925 51.7033 59.4358 50.3033 59.9491 48.53C60.1358 47.97 60.3458 47.34 60.5791 46.64C60.8591 45.8933 61.1391 45.1933 61.4191 44.54C61.7458 43.8867 62.0958 43.28 62.4691 42.72C62.8891 42.1133 63.3325 41.67 63.7991 41.39C64.8258 40.69 65.7591 40.5267 66.5991 40.9C67.4391 41.2267 68.1625 41.81 68.7691 42.65C69.3758 43.49 69.8891 44.47 70.3091 45.59C70.7758 46.6633 71.1491 47.6433 71.4291 48.53C71.7091 49.4633 71.9658 50.28 72.1991 50.98C72.4325 51.6333 72.6425 52.24 72.8291 52.8C73.0158 53.36 73.1791 53.8967 73.3191 54.41C73.5058 54.9233 73.6925 55.46 73.8791 56.02C74.0658 55.46 74.2291 54.9233 74.3691 54.41C74.5558 53.8967 74.7425 53.36 74.9291 52.8C75.1158 52.24 75.3258 51.6333 75.5591 50.98C75.7925 50.28 76.0491 49.4633 76.3291 48.53C76.5158 47.9233 76.7025 47.2233 76.8891 46.43C77.1225 45.6367 77.3558 44.8433 77.5891 44.05C77.8225 43.21 78.0558 42.4167 78.2891 41.67C78.5691 40.9233 78.8725 40.2933 79.1991 39.78C79.5258 39.2667 79.9691 38.8467 80.5291 38.52C81.0891 38.1467 81.6725 37.9367 82.2791 37.89C82.8858 37.7967 83.4925 37.8667 84.0991 38.1C84.7525 38.3333 85.3125 38.8 85.7791 39.5Z" fill="white"/>
<defs>
<filter id="filter0_d_0_1" x="0" y="0" width="108" height="108" filterUnits="userSpaceOnUse" color-interpolation-filters="sRGB">
<feFlood flood-opacity="0" result="BackgroundImageFix"/>
<feColorMatrix in="SourceAlpha" type="matrix" values="0 0 0 0 0 0 0 0 0 0 0 0 0 0 0 0 0 0 127 0" result="hardAlpha"/>
<feOffset dy="4"/>
<feGaussianBlur stdDeviation="2"/>
<feComposite in2="hardAlpha" operator="out"/>
<feColorMatrix type="matrix" values="0 0 0 0 0 0 0 0 0 0 0 0 0 0 0 0 0 0 0.25 0"/>
<feBlend mode="normal" in2="BackgroundImageFix" result="effect1_dropShadow_0_1"/>
<feBlend mode="normal" in="SourceGraphic" in2="effect1_dropShadow_0_1" result="shape"/>
</filter>
</defs>
</svg>
