<svg width="2243" height="152" viewBox="0 0 2243 152" fill="none" xmlns="http://www.w3.org/2000/svg">
<path d="M47.68 120.96C38.72 120.96 30.6667 119.307 23.52 116C16.3733 112.693 10.6667 107.84 6.4 101.44C2.24 94.9333 0.16 87.0933 0.16 77.92C0.16 71.52 1.28 64.5867 3.52 57.12C8.42667 41.12 15.84 29.6 25.76 22.56C35.68 15.4133 46.2933 11.84 57.6 11.84C63.68 11.84 69.0667 12.7467 73.76 14.56C78.4533 16.3733 82.7733 18.9867 86.72 22.4L91.04 19.04C93.92 16.8 96.32 15.2533 98.24 14.4C100.267 13.5467 102.507 13.12 104.96 13.12C107.627 13.12 109.76 13.7067 111.36 14.88C112.96 16.0533 113.76 17.76 113.76 20C113.76 21.1733 113.547 22.3467 113.12 23.52L104.16 48.48C103.2 51.36 102.027 53.3867 100.64 54.56C99.36 55.7333 97.3867 56.32 94.72 56.32C91.9467 56.32 89.6533 55.36 87.84 53.44C86.1333 51.4133 84.16 48 81.92 43.2C79.36 38.1867 77.28 34.88 75.68 33.28C74.08 31.68 71.7333 30.88 68.64 30.88C64.2667 30.88 60.0533 33.6 56 39.04C51.9467 44.3733 48.2667 52.4267 44.96 63.2C42.1867 72.2667 40.8 79.84 40.8 85.92C40.8 91.2533 41.8133 95.2533 43.84 97.92C45.8667 100.48 48.5867 101.76 52 101.76C57.0133 101.76 61.12 100.64 64.32 98.4C67.6267 96.16 70.9867 93.12 74.4 89.28C76.5333 86.9333 78.24 85.2267 79.52 84.16C80.9067 82.9867 82.3467 82.4 83.84 82.4C85.76 82.4 87.7867 83.36 89.92 85.28C92.0533 87.2 93.0667 89.12 92.96 91.04C93.0667 93.3867 91.1467 97.0133 87.2 101.92C83.36 106.827 77.9733 111.253 71.04 115.2C64.2133 119.04 56.4267 120.96 47.68 120.96ZM200.861 97.92C200.648 98.3467 200.541 98.9867 200.541 99.84C200.541 100.587 200.701 101.173 201.021 101.6C201.448 102.027 201.981 102.24 202.621 102.24C203.901 102.24 204.968 101.707 205.821 100.64C206.781 99.4667 207.421 98.88 207.741 98.88C208.275 98.88 208.701 99.2533 209.021 100C209.341 100.64 209.501 101.44 209.501 102.4C209.608 105.493 208.595 108.533 206.461 111.52C204.328 114.4 201.181 116.8 197.021 118.72C192.968 120.533 188.061 121.44 182.301 121.44C175.261 121.44 169.661 119.84 165.501 116.64C161.341 113.333 159.208 108.96 159.101 103.52C159.101 99.5733 160.061 95.1467 161.981 90.24L170.781 67.2C171.315 65.8133 171.581 64.6933 171.581 63.84C171.581 62.4533 171.101 61.3867 170.141 60.64C169.288 59.7867 168.221 59.36 166.941 59.36C164.915 59.36 162.835 60.32 160.701 62.24C158.675 64.0533 157.021 67.04 155.741 71.2V70.88L145.661 103.36C145.341 104.64 145.181 105.76 145.181 106.72C145.181 108.107 145.448 109.227 145.981 110.08C146.515 110.827 147.261 111.573 148.221 112.32C148.968 113.067 149.501 113.707 149.821 114.24C150.141 114.667 150.195 115.253 149.981 116C149.448 117.387 148.381 118.4 146.781 119.04C145.181 119.68 142.728 120 139.421 120H102.941C100.168 120 98.1412 119.573 96.8612 118.72C95.5812 117.76 95.1546 116.533 95.5812 115.04C96.0079 113.76 97.1279 112.64 98.9412 111.68C100.541 110.827 101.875 109.813 102.941 108.64C104.008 107.467 104.915 105.6 105.661 103.04L129.981 23.2C130.301 22.24 130.461 21.44 130.461 20.8C130.461 19.6267 130.141 18.6667 129.501 17.92C128.968 17.1733 128.221 16.4267 127.261 15.68C126.195 14.8267 125.395 14.08 124.861 13.44C124.435 12.8 124.381 11.9467 124.701 10.88C125.341 8.42666 128.701 6.29333 134.781 4.47999C140.861 2.66666 147.208 1.76 153.821 1.76C160.008 1.76 164.541 2.93333 167.421 5.28C170.408 7.62666 171.901 10.8267 171.901 14.88C171.901 17.2267 171.528 19.52 170.781 21.76L162.141 49.92C166.301 44.48 170.675 40.6933 175.261 38.56C179.955 36.4267 185.021 35.36 190.461 35.36C196.968 35.36 202.195 37.3333 206.141 41.28C210.195 45.2267 212.221 50.3467 212.221 56.64C212.221 59.9467 211.688 63.2 210.621 66.4L200.861 97.92ZM258.455 35.36C264.642 35.36 269.175 36.5333 272.055 38.88C274.935 41.2267 276.375 44.4267 276.375 48.48C276.375 50.9333 276.002 53.28 275.255 55.52L260.535 103.36C260.215 104.64 260.055 105.76 260.055 106.72C260.055 108.107 260.322 109.227 260.855 110.08C261.388 110.827 262.135 111.573 263.095 112.32C263.842 113.067 264.375 113.707 264.695 114.24C265.015 114.667 265.068 115.253 264.855 116C264.322 117.387 263.255 118.4 261.655 119.04C260.055 119.68 257.602 120 254.295 120H217.815C215.042 120 213.015 119.573 211.735 118.72C210.455 117.76 210.028 116.533 210.455 115.04C210.882 113.76 212.002 112.64 213.815 111.68C215.415 110.827 216.748 109.813 217.815 108.64C218.882 107.467 219.788 105.6 220.535 103.04L234.455 56.8C234.775 55.84 234.935 55.04 234.935 54.4C234.935 53.2267 234.668 52.32 234.135 51.68C233.602 50.9333 232.802 50.1867 231.735 49.44C230.668 48.5867 229.922 47.84 229.495 47.2C229.068 46.56 229.015 45.7067 229.335 44.64C229.975 42.1867 233.335 40.0533 239.415 38.24C245.495 36.32 251.842 35.36 258.455 35.36ZM269.175 -9.53674e-06C273.335 -9.53674e-06 276.802 1.38666 279.575 4.15999C282.348 6.82666 283.735 10.1333 283.735 14.08C283.735 16.8533 282.988 19.5733 281.495 22.24C280.108 24.9067 278.082 27.0933 275.415 28.8C272.855 30.4 269.975 31.2 266.775 31.2C262.722 31.2 259.308 29.8667 256.535 27.2C253.868 24.4267 252.482 21.0133 252.375 16.96C252.375 14.2933 253.068 11.68 254.455 9.12C255.842 6.45333 257.815 4.26666 260.375 2.56C262.935 0.853326 265.868 -9.53674e-06 269.175 -9.53674e-06ZM374.009 97.92C373.795 98.3467 373.689 98.9867 373.689 99.84C373.689 100.587 373.849 101.173 374.169 101.6C374.595 102.027 375.129 102.24 375.769 102.24C377.049 102.24 378.115 101.707 378.969 100.64C379.929 99.4667 380.569 98.88 380.889 98.88C381.422 98.88 381.849 99.2533 382.169 100C382.489 100.64 382.649 101.44 382.649 102.4C382.755 105.493 381.742 108.533 379.609 111.52C377.475 114.4 374.329 116.8 370.169 118.72C366.115 120.533 361.209 121.44 355.449 121.44C348.409 121.44 342.809 119.84 338.649 116.64C334.489 113.333 332.355 108.96 332.249 103.52C332.249 99.5733 333.209 95.1467 335.129 90.24L343.929 67.2C344.462 65.8133 344.729 64.6933 344.729 63.84C344.729 62.4533 344.249 61.3867 343.289 60.64C342.435 59.7867 341.369 59.36 340.089 59.36C337.742 59.36 335.502 60.48 333.369 62.72C331.235 64.8533 329.689 67.52 328.729 70.72L318.809 103.36C318.382 104.533 318.169 105.653 318.169 106.72C318.169 108 318.435 109.067 318.969 109.92C319.502 110.667 320.249 111.467 321.209 112.32C321.955 112.96 322.489 113.547 322.809 114.08C323.129 114.613 323.182 115.253 322.969 116C322.542 117.387 321.529 118.4 319.929 119.04C318.329 119.68 315.822 120 312.409 120H275.929C273.155 120 271.182 119.573 270.009 118.72C268.729 117.76 268.249 116.533 268.569 115.04C268.995 113.76 270.115 112.64 271.929 111.68C273.529 110.827 274.862 109.813 275.929 108.64C276.995 107.467 277.902 105.6 278.649 103.04L292.889 56.8C293.102 56.2667 293.209 55.52 293.209 54.56C293.209 53.3867 292.942 52.48 292.409 51.84C291.982 51.2 291.235 50.4 290.169 49.44C289.102 48.5867 288.355 47.84 287.929 47.2C287.502 46.56 287.449 45.7067 287.769 44.64C288.409 42.1867 291.769 40.0533 297.849 38.24C303.929 36.32 310.275 35.36 316.889 35.36C322.222 35.36 326.435 36.8533 329.529 39.84C332.622 42.72 334.009 46.7733 333.689 52C338.062 45.7067 342.702 41.3867 347.609 39.04C352.515 36.5867 357.849 35.36 363.609 35.36C370.115 35.36 375.342 37.3333 379.289 41.28C383.342 45.2267 385.369 50.3467 385.369 56.64C385.369 59.9467 384.835 63.2 383.769 66.4L374.009 97.92ZM443.74 34.56C457.287 34.56 467.1 36.7467 473.18 41.12C479.26 45.3867 482.3 50.88 482.3 57.6C482.3 59.6267 482.087 61.4933 481.66 63.2C480.06 70.24 475.58 75.3067 468.22 78.4C460.967 81.3867 452.38 82.88 442.46 82.88C437.447 82.88 432.753 82.56 428.38 81.92C428.273 87.4667 429.767 91.36 432.86 93.6C435.953 95.84 440.273 96.96 445.82 96.96C448.38 96.96 450.833 96.6933 453.18 96.16C455.527 95.52 458.513 94.6133 462.14 93.44C465.127 92.3733 467.153 91.84 468.22 91.84C469.393 91.84 469.98 92.5333 469.98 93.92C470.087 97.6533 468.7 101.6 465.82 105.76C462.94 109.813 458.673 113.28 453.02 116.16C447.367 119.04 440.54 120.48 432.54 120.48C420.7 120.48 410.993 117.493 403.42 111.52C395.847 105.547 392.06 96.8533 392.06 85.44C392.06 82.24 392.487 78.5067 393.34 74.24C396.007 61.12 401.82 51.2533 410.78 44.64C419.847 37.92 430.833 34.56 443.74 34.56ZM429.5 72.32C429.927 72.4267 430.513 72.48 431.26 72.48C435.74 72.48 439.153 70.4 441.5 66.24C443.847 62.08 444.967 57.44 444.86 52.32C444.753 49.3333 443.9 47.84 442.3 47.84C441.127 47.84 439.74 48.8 438.14 50.72C436.54 52.5333 434.94 55.3067 433.34 59.04C431.847 62.7733 430.567 67.2 429.5 72.32ZM531.671 33.92C540.525 33.92 548.151 34.72 554.551 36.32C561.058 37.92 566.018 40.16 569.431 43.04C572.951 45.92 574.711 49.1733 574.711 52.8C574.711 56.5333 573.218 59.5733 570.231 61.92C567.351 64.2667 563.298 65.44 558.071 65.44C552.738 65.44 548.205 64.1067 544.471 61.44C540.845 58.7733 539.031 55.4133 539.031 51.36C539.031 49.9733 539.245 48.64 539.671 47.36C537.751 46.8267 536.045 46.56 534.551 46.56C531.885 46.56 529.645 47.2 527.831 48.48C526.125 49.76 525.325 51.5733 525.431 53.92C525.431 56.6933 526.818 59.04 529.591 60.96C532.365 62.88 536.845 65.28 543.031 68.16C548.365 70.5067 552.738 72.6933 556.151 74.72C559.671 76.64 562.605 79.0933 564.951 82.08C567.405 85.0667 568.631 88.5867 568.631 92.64C568.631 93.4933 568.418 95.0933 567.991 97.44C566.285 104.587 561.538 110.24 553.751 114.4C545.965 118.56 535.725 120.64 523.031 120.64C508.738 120.64 497.378 118.72 488.951 114.88C480.631 111.04 476.471 105.76 476.471 99.04C476.471 94.4533 477.858 90.9867 480.631 88.64C483.405 86.2933 487.085 85.12 491.671 85.12C497.005 85.12 501.538 86.7733 505.271 90.08C509.111 93.3867 511.031 97.6 511.031 102.72C511.031 104.107 510.871 105.547 510.551 107.04C513.111 107.68 515.565 108 517.911 108C520.685 108 522.978 107.253 524.791 105.76C526.605 104.267 527.511 102.187 527.511 99.52C527.405 97.0667 526.178 94.9867 523.831 93.28C521.485 91.4667 517.751 89.3333 512.631 86.88C507.831 84.64 503.885 82.56 500.791 80.64C497.698 78.6133 495.031 76.1067 492.791 73.12C490.658 70.1333 489.591 66.6133 489.591 62.56C489.591 53.8133 493.218 46.88 500.471 41.76C507.831 36.5333 518.231 33.92 531.671 33.92ZM628.115 34.56C641.662 34.56 651.475 36.7467 657.555 41.12C663.635 45.3867 666.675 50.88 666.675 57.6C666.675 59.6267 666.462 61.4933 666.035 63.2C664.435 70.24 659.955 75.3067 652.595 78.4C645.342 81.3867 636.755 82.88 626.835 82.88C621.822 82.88 617.128 82.56 612.755 81.92C612.648 87.4667 614.142 91.36 617.235 93.6C620.328 95.84 624.648 96.96 630.195 96.96C632.755 96.96 635.208 96.6933 637.555 96.16C639.902 95.52 642.888 94.6133 646.515 93.44C649.502 92.3733 651.528 91.84 652.595 91.84C653.768 91.84 654.355 92.5333 654.355 93.92C654.462 97.6533 653.075 101.6 650.195 105.76C647.315 109.813 643.048 113.28 637.395 116.16C631.742 119.04 624.915 120.48 616.915 120.48C605.075 120.48 595.368 117.493 587.795 111.52C580.222 105.547 576.435 96.8533 576.435 85.44C576.435 82.24 576.862 78.5067 577.715 74.24C580.382 61.12 586.195 51.2533 595.155 44.64C604.222 37.92 615.208 34.56 628.115 34.56ZM613.875 72.32C614.302 72.4267 614.888 72.48 615.635 72.48C620.115 72.48 623.528 70.4 625.875 66.24C628.222 62.08 629.342 57.44 629.235 52.32C629.128 49.3333 628.275 47.84 626.675 47.84C625.502 47.84 624.115 48.8 622.515 50.72C620.915 52.5333 619.315 55.3067 617.715 59.04C616.222 62.7733 614.942 67.2 613.875 72.32ZM867.278 13.44C869.518 13.44 871.224 13.8133 872.398 14.56C873.678 15.2 874.318 16.16 874.318 17.44C874.318 17.9733 874.158 18.6667 873.838 19.52C873.518 20.48 873.038 21.2267 872.398 21.76C871.864 22.1867 871.011 22.7733 869.838 23.52C868.131 24.48 866.744 25.5467 865.678 26.72C864.718 27.8933 863.864 29.7067 863.118 32.16L843.598 100.96C843.171 102.347 842.958 103.68 842.958 104.96C842.958 106.133 843.118 107.147 843.438 108C843.864 108.747 844.398 109.653 845.038 110.72C845.464 111.253 845.838 111.84 846.158 112.48C846.478 113.013 846.638 113.6 846.638 114.24C846.638 114.453 846.531 114.987 846.318 115.84C845.891 117.227 844.878 118.24 843.278 118.88C841.784 119.52 839.598 119.84 836.718 119.84H799.118C796.878 119.84 795.118 119.467 793.838 118.72C792.664 117.973 792.078 116.96 792.078 115.68C792.078 115.04 792.238 114.347 792.558 113.6C792.878 112.853 793.304 112.213 793.838 111.68C794.478 111.04 795.011 110.613 795.438 110.4C795.971 110.08 796.344 109.813 796.558 109.6C798.264 108.64 799.651 107.573 800.718 106.4C801.784 105.227 802.691 103.413 803.438 100.96L815.598 57.76L774.158 109.12C770.744 113.28 767.971 116.16 765.838 117.76C763.811 119.253 761.464 120 758.798 120C756.238 120 754.211 119.2 752.718 117.6C751.331 115.893 750.051 113.067 748.878 109.12L733.838 59.68L721.998 101.12C721.571 102.507 721.358 103.84 721.358 105.12C721.358 106.4 721.518 107.467 721.838 108.32C722.264 109.173 722.851 110.08 723.598 111.04C724.558 112.427 725.038 113.547 725.038 114.4C725.038 114.613 724.931 115.147 724.718 116C724.291 117.493 723.331 118.56 721.838 119.2C720.344 119.733 718.104 120 715.118 120H701.838C699.598 120 697.838 119.627 696.558 118.88C695.384 118.133 694.797 117.12 694.797 115.84C694.797 115.2 694.957 114.507 695.277 113.76C695.704 112.587 696.398 111.68 697.358 111.04C698.318 110.4 698.904 110.027 699.118 109.92C700.824 108.853 702.211 107.787 703.278 106.72C704.344 105.547 705.251 103.68 705.997 101.12L725.518 32L722.958 23.52C722.424 21.92 722.158 20.3733 722.158 18.88C722.158 16.96 722.744 15.5733 723.918 14.72C725.198 13.8667 727.118 13.44 729.678 13.44H754.478C757.678 13.44 760.024 14.1333 761.518 15.52C763.118 16.9067 764.398 19.3067 765.358 22.72L781.358 75.84L824.718 21.92C827.491 18.5067 830.211 16.2667 832.878 15.2C835.544 14.0267 839.064 13.44 843.438 13.44H867.278ZM945.863 35.36C950.556 35.36 954.289 37.28 957.063 41.12C959.943 44.8533 961.383 49.9733 961.383 56.48C961.383 62.1333 960.369 68.2133 958.343 74.72C954.396 87.84 948.049 100.213 939.303 111.84C930.663 123.467 920.689 132.8 909.383 139.84C898.183 146.88 886.983 150.4 875.783 150.4C870.236 150.4 865.436 149.44 861.383 147.52C857.436 145.6 854.449 143.04 852.422 139.84C850.289 136.64 849.222 133.227 849.222 129.6C849.222 128 849.489 126.24 850.022 124.32C850.982 121.333 852.582 119.04 854.822 117.44C857.062 115.84 859.729 115.04 862.823 115.04C867.729 115.04 871.729 116.693 874.823 120C878.023 123.413 880.049 128.053 880.903 133.92C887.729 133.6 894.023 130.667 899.783 125.12C894.343 124.16 890.289 122.347 887.623 119.68C885.063 116.907 883.303 112.64 882.343 106.88L875.943 67.68C875.623 65.6533 875.143 64.2667 874.503 63.52C873.969 62.6667 873.223 62.24 872.263 62.24C871.516 62.24 870.609 62.6133 869.543 63.36C868.583 64.1067 867.889 64.48 867.463 64.48C866.609 64.48 866.183 63.5733 866.183 61.76C866.183 60.2667 866.449 58.6667 866.983 56.96C868.903 50.88 872.476 45.76 877.703 41.6C882.929 37.3333 889.009 35.2 895.943 35.2C902.769 35.2 907.783 37.2267 910.983 41.28C914.289 45.3333 916.423 51.5733 917.383 60L922.183 95.2C922.503 97.8667 923.463 99.2 925.063 99.2C926.983 99.2 929.223 97.4933 931.783 94.08C934.343 90.56 936.849 85.6 939.303 79.2C936.103 76.32 933.649 73.0133 931.943 69.28C930.236 65.5467 929.383 61.5467 929.383 57.28C929.383 53.9733 929.809 50.9867 930.663 48.32C931.943 44.0533 933.916 40.8533 936.583 38.72C939.356 36.48 942.449 35.36 945.863 35.36ZM1012.92 33.92C1021.77 33.92 1029.4 34.72 1035.8 36.32C1042.31 37.92 1047.27 40.16 1050.68 43.04C1054.2 45.92 1055.96 49.1733 1055.96 52.8C1055.96 56.5333 1054.47 59.5733 1051.48 61.92C1048.6 64.2667 1044.55 65.44 1039.32 65.44C1033.99 65.44 1029.45 64.1067 1025.72 61.44C1022.09 58.7733 1020.28 55.4133 1020.28 51.36C1020.28 49.9733 1020.49 48.64 1020.92 47.36C1019 46.8267 1017.29 46.56 1015.8 46.56C1013.13 46.56 1010.89 47.2 1009.08 48.48C1007.37 49.76 1006.57 51.5733 1006.68 53.92C1006.68 56.6933 1008.07 59.04 1010.84 60.96C1013.61 62.88 1018.09 65.28 1024.28 68.16C1029.61 70.5067 1033.99 72.6933 1037.4 74.72C1040.92 76.64 1043.85 79.0933 1046.2 82.08C1048.65 85.0667 1049.88 88.5867 1049.88 92.64C1049.88 93.4933 1049.67 95.0933 1049.24 97.44C1047.53 104.587 1042.79 110.24 1035 114.4C1027.21 118.56 1016.97 120.64 1004.28 120.64C989.988 120.64 978.628 118.72 970.201 114.88C961.881 111.04 957.721 105.76 957.721 99.04C957.721 94.4533 959.108 90.9867 961.881 88.64C964.655 86.2933 968.335 85.12 972.921 85.12C978.255 85.12 982.788 86.7733 986.521 90.08C990.361 93.3867 992.281 97.6 992.281 102.72C992.281 104.107 992.121 105.547 991.801 107.04C994.361 107.68 996.815 108 999.161 108C1001.93 108 1004.23 107.253 1006.04 105.76C1007.85 104.267 1008.76 102.187 1008.76 99.52C1008.65 97.0667 1007.43 94.9867 1005.08 93.28C1002.73 91.4667 999.001 89.3333 993.881 86.88C989.081 84.64 985.135 82.56 982.041 80.64C978.948 78.6133 976.281 76.1067 974.041 73.12C971.908 70.1333 970.841 66.6133 970.841 62.56C970.841 53.8133 974.468 46.88 981.721 41.76C989.081 36.5333 999.481 33.92 1012.92 33.92ZM1126.65 37.44C1128.67 37.44 1130.22 37.8667 1131.29 38.72C1132.46 39.5733 1133.05 40.7467 1133.05 42.24C1133.05 42.6667 1132.94 43.4133 1132.73 44.48C1131.34 49.1733 1128.14 51.52 1123.13 51.52H1113.85L1101.85 91.04C1101.31 92.64 1101.05 94.2933 1101.05 96C1101.05 97.92 1101.58 99.2533 1102.65 100C1103.71 100.747 1105.21 101.12 1107.13 101.12C1108.83 101.12 1110.97 100.907 1113.53 100.48C1114.81 100.16 1115.93 100 1116.89 100C1117.63 100 1118.17 100.267 1118.49 100.8C1118.91 101.227 1119.13 101.813 1119.13 102.56C1119.23 104.693 1117.63 107.307 1114.33 110.4C1111.13 113.387 1106.75 116 1101.21 118.24C1095.66 120.373 1089.53 121.44 1082.81 121.44C1075.55 121.44 1069.74 119.787 1065.37 116.48C1060.99 113.173 1058.81 108.64 1058.81 102.88C1058.81 100.213 1059.23 97.6533 1060.09 95.2L1070.33 63.52C1070.86 61.7067 1071.13 60.2667 1071.13 59.2C1071.13 57.0667 1070.59 55.2533 1069.53 53.76C1068.57 52.2667 1067.18 50.72 1065.37 49.12C1063.77 47.6267 1062.65 46.4 1062.01 45.44C1061.37 44.3733 1061.21 43.1467 1061.53 41.76C1061.95 40.3733 1062.86 39.3067 1064.25 38.56C1065.63 37.8133 1067.82 37.44 1070.81 37.44H1079.77L1089.85 27.36C1093.37 23.84 1096.57 21.3867 1099.45 20C1102.43 18.6133 1106.27 17.92 1110.97 17.92C1117.69 17.92 1121.05 20.48 1121.05 25.6C1121.05 27.2 1120.83 28.6933 1120.41 30.08L1118.17 37.44H1126.65ZM1165.96 35.36C1172.14 35.36 1176.68 36.5333 1179.56 38.88C1182.44 41.2267 1183.88 44.4267 1183.88 48.48C1183.88 50.9333 1183.5 53.28 1182.76 55.52L1168.04 103.36C1167.72 104.64 1167.56 105.76 1167.56 106.72C1167.56 108.107 1167.82 109.227 1168.36 110.08C1168.89 110.827 1169.64 111.573 1170.6 112.32C1171.34 113.067 1171.88 113.707 1172.2 114.24C1172.52 114.667 1172.57 115.253 1172.36 116C1171.82 117.387 1170.76 118.4 1169.16 119.04C1167.56 119.68 1165.1 120 1161.8 120H1125.32C1122.54 120 1120.51 119.573 1119.23 118.72C1117.95 117.76 1117.53 116.533 1117.95 115.04C1118.38 113.76 1119.5 112.64 1121.31 111.68C1122.91 110.827 1124.25 109.813 1125.32 108.64C1126.38 107.467 1127.29 105.6 1128.04 103.04L1141.96 56.8C1142.28 55.84 1142.44 55.04 1142.44 54.4C1142.44 53.2267 1142.17 52.32 1141.64 51.68C1141.1 50.9333 1140.3 50.1867 1139.24 49.44C1138.17 48.5867 1137.42 47.84 1137 47.2C1136.57 46.56 1136.52 45.7067 1136.84 44.64C1137.48 42.1867 1140.84 40.0533 1146.92 38.24C1153 36.32 1159.34 35.36 1165.96 35.36ZM1176.68 -9.53674e-06C1180.84 -9.53674e-06 1184.3 1.38666 1187.08 4.15999C1189.85 6.82666 1191.24 10.1333 1191.24 14.08C1191.24 16.8533 1190.49 19.5733 1189 22.24C1187.61 24.9067 1185.58 27.0933 1182.92 28.8C1180.36 30.4 1177.48 31.2 1174.28 31.2C1170.22 31.2 1166.81 29.8667 1164.04 27.2C1161.37 24.4267 1159.98 21.0133 1159.88 16.96C1159.88 14.2933 1160.57 11.68 1161.96 9.12C1163.34 6.45333 1165.32 4.26666 1167.88 2.56C1170.44 0.853326 1173.37 -9.53674e-06 1176.68 -9.53674e-06ZM1240.55 34.56C1247.06 34.56 1252.76 35.52 1257.67 37.44C1262.58 39.2533 1266.36 41.8133 1269.03 45.12C1271.8 48.32 1273.19 51.8933 1273.19 55.84C1273.19 60.1067 1271.7 63.6267 1268.71 66.4C1265.83 69.1733 1261.88 70.56 1256.87 70.56C1251.75 70.56 1247.75 69.28 1244.87 66.72C1241.99 64.0533 1240.55 60.48 1240.55 56C1240.55 53.8667 1240.87 51.6267 1241.51 49.28C1237.03 50.4533 1233.03 52.8 1229.51 56.32C1226.1 59.7333 1223.8 64.2667 1222.63 69.92C1221.99 73.12 1221.67 76 1221.67 78.56C1221.67 84.32 1223.27 88.6933 1226.47 91.68C1229.67 94.6667 1234.26 96.16 1240.23 96.16C1243.64 96.16 1246.58 95.84 1249.03 95.2C1251.48 94.4533 1253.99 93.4933 1256.55 92.32C1258.68 91.2533 1260.23 90.72 1261.19 90.72C1261.83 90.72 1262.26 90.88 1262.47 91.2C1262.68 91.4133 1262.79 91.9467 1262.79 92.8C1262.9 96.7467 1261.24 100.907 1257.83 105.28C1254.52 109.547 1249.88 113.173 1243.91 116.16C1238.04 119.04 1231.43 120.48 1224.07 120.48C1216.39 120.48 1209.56 119.093 1203.59 116.32C1197.72 113.44 1193.14 109.387 1189.83 104.16C1186.63 98.8267 1185.03 92.64 1185.03 85.6C1185.03 82.2933 1185.46 78.6133 1186.31 74.56C1189.19 61.3333 1195.54 51.36 1205.35 44.64C1215.27 37.92 1227 34.56 1240.55 34.56ZM1418.34 12.8C1422.82 12.8 1426.55 14.24 1429.54 17.12C1432.53 20 1434.02 23.8933 1434.02 28.8C1434.02 34.3467 1432.37 38.8267 1429.06 42.24C1425.75 45.6533 1421.81 47.36 1417.22 47.36C1414.23 47.36 1411.67 46.8267 1409.54 45.76C1407.41 44.6933 1405.38 42.9867 1403.46 40.64L1389.7 52.16L1405.22 98.08C1406.18 100.747 1407.19 102.88 1408.26 104.48C1409.43 106.08 1410.82 107.68 1412.42 109.28C1413.59 110.453 1414.39 111.413 1414.82 112.16C1415.35 112.8 1415.62 113.6 1415.62 114.56C1415.62 116.267 1414.82 117.6 1413.22 118.56C1411.73 119.52 1409.06 120 1405.22 120H1384.26C1379.03 120 1375.14 118.88 1372.58 116.64C1370.13 114.293 1368.1 110.453 1366.5 105.12L1358.5 78.24L1353.86 82.08L1348.58 101.12C1348.15 102.507 1347.94 103.84 1347.94 105.12C1347.94 106.4 1348.1 107.467 1348.42 108.32C1348.85 109.173 1349.43 110.08 1350.18 111.04C1351.14 112.427 1351.62 113.547 1351.62 114.4C1351.62 114.613 1351.51 115.147 1351.3 116C1350.87 117.493 1349.91 118.56 1348.42 119.2C1346.93 119.733 1344.69 120 1341.7 120H1304.1C1301.86 120 1300.15 119.627 1298.98 118.88C1297.7 118.133 1297.06 117.12 1297.06 115.84C1297.06 115.2 1297.22 114.507 1297.54 113.76C1297.97 112.587 1298.66 111.68 1299.62 111.04C1300.58 110.4 1301.17 110.027 1301.38 109.92C1303.09 108.853 1304.47 107.787 1305.54 106.72C1306.61 105.547 1307.51 103.68 1308.26 101.12L1327.78 32.16C1328.21 30.7733 1328.42 29.44 1328.42 28.16C1328.42 26.9867 1328.21 26.0267 1327.78 25.28C1327.46 24.4267 1326.98 23.4667 1326.34 22.4C1325.38 21.0133 1324.9 19.8933 1324.9 19.04C1324.9 18.72 1325.01 18.1333 1325.22 17.28C1325.65 15.8933 1326.55 14.9333 1327.94 14.4C1329.43 13.76 1331.67 13.44 1334.66 13.44H1372.26C1374.5 13.44 1376.21 13.8133 1377.38 14.56C1378.66 15.2 1379.3 16.16 1379.3 17.44C1379.3 17.9733 1379.14 18.6667 1378.82 19.52C1378.5 20.2667 1378.02 20.96 1377.38 21.6C1376.85 22.1333 1376.31 22.56 1375.78 22.88C1375.35 23.0933 1375.03 23.3067 1374.82 23.52C1373.11 24.48 1371.73 25.5467 1370.66 26.72C1369.59 27.8933 1368.69 29.7067 1367.94 32.16L1361.22 56L1403.62 19.36C1406.39 17.0133 1408.9 15.36 1411.14 14.4C1413.38 13.3333 1415.78 12.8 1418.34 12.8ZM1526.2 97.92C1525.98 98.3467 1525.88 98.9867 1525.88 99.84C1525.88 100.587 1526.04 101.173 1526.36 101.6C1526.78 102.027 1527.32 102.24 1527.96 102.24C1529.24 102.24 1530.3 101.707 1531.16 100.64C1532.12 99.4667 1532.76 98.88 1533.08 98.88C1533.61 98.88 1534.04 99.2533 1534.36 100C1534.68 100.64 1534.84 101.44 1534.84 102.4C1534.94 105.493 1533.93 108.533 1531.8 111.52C1529.66 114.4 1526.52 116.8 1522.36 118.72C1518.3 120.533 1513.4 121.44 1507.64 121.44C1500.6 121.44 1495 119.84 1490.84 116.64C1486.68 113.333 1484.54 108.96 1484.44 103.52C1484.44 99.5733 1485.4 95.1467 1487.32 90.24L1496.12 67.2C1496.65 65.8133 1496.92 64.6933 1496.92 63.84C1496.92 62.4533 1496.44 61.3867 1495.48 60.64C1494.62 59.7867 1493.56 59.36 1492.28 59.36C1489.93 59.36 1487.69 60.48 1485.56 62.72C1483.42 64.8533 1481.88 67.52 1480.92 70.72L1471 103.36C1470.57 104.533 1470.36 105.653 1470.36 106.72C1470.36 108 1470.62 109.067 1471.16 109.92C1471.69 110.667 1472.44 111.467 1473.4 112.32C1474.14 112.96 1474.68 113.547 1475 114.08C1475.32 114.613 1475.37 115.253 1475.16 116C1474.73 117.387 1473.72 118.4 1472.12 119.04C1470.52 119.68 1468.01 120 1464.6 120H1428.12C1425.34 120 1423.37 119.573 1422.2 118.72C1420.92 117.76 1420.44 116.533 1420.76 115.04C1421.18 113.76 1422.3 112.64 1424.12 111.68C1425.72 110.827 1427.05 109.813 1428.12 108.64C1429.18 107.467 1430.09 105.6 1430.84 103.04L1445.08 56.8C1445.29 56.2667 1445.4 55.52 1445.4 54.56C1445.4 53.3867 1445.13 52.48 1444.6 51.84C1444.17 51.2 1443.42 50.4 1442.36 49.44C1441.29 48.5867 1440.54 47.84 1440.12 47.2C1439.69 46.56 1439.64 45.7067 1439.96 44.64C1440.6 42.1867 1443.96 40.0533 1450.04 38.24C1456.12 36.32 1462.46 35.36 1469.08 35.36C1474.41 35.36 1478.62 36.8533 1481.72 39.84C1484.81 42.72 1486.2 46.7733 1485.88 52C1490.25 45.7067 1494.89 41.3867 1499.8 39.04C1504.7 36.5867 1510.04 35.36 1515.8 35.36C1522.3 35.36 1527.53 37.3333 1531.48 41.28C1535.53 45.2267 1537.56 50.3467 1537.56 56.64C1537.56 59.9467 1537.02 63.2 1535.96 66.4L1526.2 97.92ZM1603.61 35.36C1618.11 35.36 1628.78 38.2933 1635.61 44.16C1642.54 50.0267 1646.01 57.7067 1646.01 67.2C1646.01 70.4 1645.58 73.9733 1644.73 77.92C1642.7 86.6667 1638.91 94.3467 1633.37 100.96C1627.82 107.467 1620.99 112.533 1612.89 116.16C1604.89 119.68 1596.19 121.44 1586.81 121.44C1571.98 121.44 1560.99 118.507 1553.85 112.64C1546.81 106.667 1543.29 98.7733 1543.29 88.96C1543.29 85.6533 1543.71 81.9733 1544.57 77.92C1546.59 69.6 1550.43 62.24 1556.09 55.84C1561.85 49.3333 1568.83 44.32 1577.05 40.8C1585.37 37.1733 1594.22 35.36 1603.61 35.36ZM1603.13 49.6C1600.89 49.6 1598.49 51.6267 1595.93 55.68C1593.47 59.6267 1590.54 67.1467 1587.13 78.24C1583.71 89.3333 1582.01 97.12 1582.01 101.6C1582.01 103.947 1582.38 105.547 1583.13 106.4C1583.87 107.147 1584.89 107.52 1586.17 107.52C1588.41 107.733 1590.7 105.813 1593.05 101.76C1595.5 97.7067 1598.54 89.8133 1602.17 78.08C1605.47 67.7333 1607.13 60.2133 1607.13 55.52C1607.13 53.28 1606.75 51.7333 1606.01 50.88C1605.37 50.0267 1604.41 49.6 1603.13 49.6ZM1796.93 58.08C1796.93 67.5733 1793.62 77.28 1787.01 87.2C1780.39 97.12 1772.02 105.333 1761.89 111.84C1751.86 118.24 1741.99 121.44 1732.29 121.44C1724.61 121.44 1718.1 120.107 1712.77 117.44C1707.43 114.773 1703.97 110.933 1702.37 105.92C1698.42 110.72 1694.05 114.347 1689.25 116.8C1684.45 119.253 1679.43 120.48 1674.21 120.48C1666.95 120.48 1661.03 118.72 1656.45 115.2C1651.97 111.573 1649.73 106.293 1649.73 99.36C1649.73 95.7333 1650.31 92 1651.49 88.16L1660.45 56.8C1660.66 55.9467 1660.77 55.3067 1660.77 54.88C1660.77 53.8133 1660.5 52.9067 1659.97 52.16C1659.43 51.4133 1658.69 50.6133 1657.73 49.76C1656.13 48.3733 1655.33 47.1467 1655.33 46.08C1655.22 44.5867 1656.13 42.9867 1658.05 41.28C1659.97 39.5733 1662.63 38.1867 1666.05 37.12C1669.57 35.9467 1673.51 35.36 1677.89 35.36C1685.03 35.36 1690.58 37.12 1694.53 40.64C1698.58 44.0533 1700.61 48.5333 1700.61 54.08C1700.61 56.5333 1700.18 59.2 1699.33 62.08L1691.17 89.28C1690.74 90.7733 1690.53 91.7867 1690.53 92.32C1690.53 93.7067 1690.9 94.7733 1691.65 95.52C1692.5 96.2667 1693.62 96.64 1695.01 96.64C1696.93 96.64 1698.53 96 1699.81 94.72C1701.19 93.3333 1702.53 91.1467 1703.81 88.16L1712.93 56.8C1713.14 55.9467 1713.25 55.3067 1713.25 54.88C1713.25 53.8133 1712.98 52.9067 1712.45 52.16C1711.91 51.4133 1711.17 50.6133 1710.21 49.76C1708.61 48.3733 1707.81 47.1467 1707.81 46.08C1707.7 44.5867 1708.61 42.9867 1710.53 41.28C1712.45 39.5733 1715.11 38.1867 1718.53 37.12C1722.05 35.9467 1725.99 35.36 1730.37 35.36C1737.62 35.36 1743.22 37.0667 1747.17 40.48C1751.11 43.8933 1753.09 48.4267 1753.09 54.08C1753.09 56.32 1752.66 58.9867 1751.81 62.08L1741.41 96.32C1741.19 96.8533 1741.09 97.6533 1741.09 98.72C1741.09 100.107 1741.57 101.173 1742.53 101.92C1743.49 102.667 1744.82 103.04 1746.53 103.04C1748.87 103.04 1751.59 102.027 1754.69 100C1757.89 97.8667 1760.98 94.88 1763.97 91.04C1767.06 87.0933 1769.57 82.4533 1771.49 77.12C1767.22 73.3867 1764.18 69.7067 1762.37 66.08C1760.66 62.4533 1759.81 58.72 1759.81 54.88C1759.81 49.44 1761.3 44.8533 1764.29 41.12C1767.27 37.28 1771.59 35.36 1777.25 35.36C1782.9 35.36 1787.59 37.3867 1791.33 41.44C1795.06 45.4933 1796.93 51.04 1796.93 58.08ZM1846.01 1.76C1852.2 1.76 1856.73 2.93333 1859.61 5.28C1862.6 7.62666 1864.09 10.8267 1864.09 14.88C1864.09 17.2267 1863.72 19.52 1862.97 21.76L1837.85 103.36C1837.53 104.64 1837.37 105.76 1837.37 106.72C1837.37 108.107 1837.64 109.227 1838.17 110.08C1838.7 110.827 1839.45 111.573 1840.41 112.32C1841.16 113.067 1841.69 113.707 1842.01 114.24C1842.33 114.667 1842.38 115.253 1842.17 116C1841.64 117.387 1840.57 118.4 1838.97 119.04C1837.37 119.68 1834.92 120 1831.61 120H1795.13C1792.36 120 1790.33 119.573 1789.05 118.72C1787.77 117.76 1787.34 116.533 1787.77 115.04C1788.2 113.76 1789.32 112.64 1791.13 111.68C1792.73 110.827 1794.06 109.813 1795.13 108.64C1796.2 107.467 1797.1 105.6 1797.85 103.04L1822.17 23.2C1822.49 22.24 1822.65 21.44 1822.65 20.8C1822.65 19.6267 1822.33 18.6667 1821.69 17.92C1821.16 17.1733 1820.41 16.4267 1819.45 15.68C1818.38 14.8267 1817.58 14.08 1817.05 13.44C1816.62 12.8 1816.57 11.9467 1816.89 10.88C1817.53 8.42666 1820.89 6.29333 1826.97 4.47999C1833.05 2.66666 1839.4 1.76 1846.01 1.76ZM1907.8 34.56C1921.35 34.56 1931.16 36.7467 1937.24 41.12C1943.32 45.3867 1946.36 50.88 1946.36 57.6C1946.36 59.6267 1946.15 61.4933 1945.72 63.2C1944.12 70.24 1939.64 75.3067 1932.28 78.4C1925.03 81.3867 1916.44 82.88 1906.52 82.88C1901.51 82.88 1896.82 82.56 1892.44 81.92C1892.34 87.4667 1893.83 91.36 1896.92 93.6C1900.02 95.84 1904.34 96.96 1909.88 96.96C1912.44 96.96 1914.9 96.6933 1917.24 96.16C1919.59 95.52 1922.58 94.6133 1926.2 93.44C1929.19 92.3733 1931.22 91.84 1932.28 91.84C1933.46 91.84 1934.04 92.5333 1934.04 93.92C1934.15 97.6533 1932.76 101.6 1929.88 105.76C1927 109.813 1922.74 113.28 1917.08 116.16C1911.43 119.04 1904.6 120.48 1896.6 120.48C1884.76 120.48 1875.06 117.493 1867.48 111.52C1859.91 105.547 1856.12 96.8533 1856.12 85.44C1856.12 82.24 1856.55 78.5067 1857.4 74.24C1860.07 61.12 1865.88 51.2533 1874.84 44.64C1883.91 37.92 1894.9 34.56 1907.8 34.56ZM1893.56 72.32C1893.99 72.4267 1894.58 72.48 1895.32 72.48C1899.8 72.48 1903.22 70.4 1905.56 66.24C1907.91 62.08 1909.03 57.44 1908.92 52.32C1908.82 49.3333 1907.96 47.84 1906.36 47.84C1905.19 47.84 1903.8 48.8 1902.2 50.72C1900.6 52.5333 1899 55.3067 1897.4 59.04C1895.91 62.7733 1894.63 67.2 1893.56 72.32ZM2032.53 96.96C2032.32 97.8133 2032.21 98.4 2032.21 98.72C2032.21 99.4667 2032.43 100.053 2032.85 100.48C2033.28 100.907 2033.81 101.12 2034.45 101.12C2035.73 101.12 2036.8 100.587 2037.65 99.52C2038.61 98.3467 2039.25 97.76 2039.57 97.76C2040.11 97.76 2040.53 98.1333 2040.85 98.88C2041.17 99.6267 2041.33 100.48 2041.33 101.44C2041.44 104.32 2040.32 107.253 2037.97 110.24C2035.73 113.227 2032.69 115.68 2028.85 117.6C2025.01 119.52 2020.85 120.48 2016.37 120.48C2011.04 120.48 2006.4 119.467 2002.45 117.44C1998.51 115.413 1995.79 112.747 1994.29 109.44C1991.41 113.173 1988.11 115.947 1984.37 117.76C1980.64 119.573 1976.69 120.48 1972.53 120.48C1967.63 120.48 1963.04 119.253 1958.77 116.8C1954.61 114.347 1951.25 110.88 1948.69 106.4C1946.24 101.813 1945.01 96.64 1945.01 90.88C1945.01 81.1733 1946.83 72.0533 1950.45 63.52C1954.19 54.88 1959.36 47.9467 1965.97 42.72C1972.59 37.3867 1980.11 34.72 1988.53 34.72C1993.12 34.72 1997.01 35.2533 2000.21 36.32C2003.52 37.3867 2006.51 38.9867 2009.17 41.12L2014.61 23.2C2014.93 22.24 2015.09 21.44 2015.09 20.8C2015.09 19.6267 2014.77 18.6667 2014.13 17.92C2013.6 17.1733 2012.85 16.4267 2011.89 15.68C2010.83 14.8267 2010.03 14.08 2009.49 13.44C2009.07 12.8 2009.01 11.9467 2009.33 10.88C2009.97 8.42666 2013.33 6.29333 2019.41 4.47999C2025.49 2.66666 2031.84 1.76 2038.45 1.76C2044.64 1.76 2049.17 2.93333 2052.05 5.28C2055.04 7.62666 2056.53 10.8267 2056.53 14.88C2056.53 17.2267 2056.16 19.52 2055.41 21.76L2032.53 96.96ZM2005.81 52C2004.11 50.5067 2002.24 49.76 2000.21 49.76C1997.12 49.76 1994.08 52.0533 1991.09 56.64C1988.11 61.2267 1985.71 66.7733 1983.89 73.28C1982.08 79.7867 1981.23 85.6533 1981.33 90.88C1981.33 96.7467 1983.25 99.68 1987.09 99.68C1988.48 99.68 1989.65 99.1467 1990.61 98.08C1991.57 96.9067 1992.48 95.04 1993.33 92.48L2005.81 52ZM2144.9 9.27999C2148.31 9.27999 2151.62 10.0267 2154.82 11.52C2158.12 12.9067 2160.79 14.88 2162.82 17.44C2164.95 19.8933 2166.02 22.56 2166.02 25.44C2166.02 31.7333 2161.75 34.88 2153.22 34.88C2150.76 34.88 2148.84 34.72 2147.46 34.4C2146.18 33.9733 2144.63 33.3333 2142.82 32.48C2142.5 33.2267 2142.34 34.2933 2142.34 35.68C2142.34 37.3867 2142.6 39.4133 2143.14 41.76C2143.78 44.1067 2144.52 46.2933 2145.38 48.32C2147.62 51.6267 2148.74 55.5733 2148.74 60.16C2148.74 62.1867 2148.47 64.64 2147.94 67.52C2146.66 73.0667 2143.83 78.1333 2139.46 82.72C2135.19 87.3067 2129.64 90.9333 2122.82 93.6C2116.1 96.16 2108.68 97.44 2100.58 97.44C2094.39 97.44 2088.58 97.0133 2083.14 96.16C2081.54 97.5467 2080.74 99.2533 2080.74 101.28C2080.74 102.667 2081.38 103.84 2082.66 104.8C2083.94 105.653 2086.07 106.08 2089.06 106.08H2113.06C2121.27 106.08 2127.67 107.52 2132.26 110.4C2136.84 113.173 2139.14 117.173 2139.14 122.4C2139.14 124.32 2138.82 126.293 2138.18 128.32C2136.9 132.48 2133.96 136.32 2129.38 139.84C2124.9 143.467 2118.55 146.4 2110.34 148.64C2102.12 150.88 2092.15 152 2080.42 152C2069.96 152 2061.11 151.093 2053.86 149.28C2046.6 147.467 2041.22 144.96 2037.7 141.76C2034.07 138.667 2032.26 135.2 2032.26 131.36C2032.26 130.507 2032.47 129.227 2032.9 127.52C2033.86 124.427 2036.04 121.92 2039.46 120C2042.76 117.973 2048.26 116.64 2055.94 116C2053.38 113.547 2052.1 110.613 2052.1 107.2C2052.1 106.027 2052.26 104.8 2052.58 103.52C2054.28 97.9733 2059.3 93.8667 2067.62 91.2C2059.62 86.8267 2055.62 80.4267 2055.62 72C2055.62 69.6533 2055.94 67.2 2056.58 64.64C2057.86 59.0933 2060.68 54.08 2065.06 49.6C2069.43 45.0133 2075.03 41.3867 2081.86 38.72C2088.68 36.0533 2096.15 34.72 2104.26 34.72C2116.95 34.72 2126.92 36.3733 2134.18 39.68C2132.58 37.2267 2131.3 34.6133 2130.34 31.84C2129.48 28.96 2129.06 26.3467 2129.06 24C2129.06 19.9467 2130.34 16.48 2132.9 13.6C2135.56 10.72 2139.56 9.27999 2144.9 9.27999ZM2110.18 66.08C2111.88 60.64 2112.74 56.48 2112.74 53.6C2112.74 49.9733 2111.19 48.16 2108.1 48.16C2105.43 48.16 2103.08 49.4933 2101.06 52.16C2099.14 54.72 2097.16 59.36 2095.14 66.08C2093.43 71.6267 2092.58 75.84 2092.58 78.72C2092.58 82.24 2094.07 84 2097.06 84C2099.72 84 2102.07 82.6667 2104.1 80C2106.12 77.3333 2108.15 72.6933 2110.18 66.08ZM2078.34 122.24C2075.35 122.24 2072.63 122.08 2070.18 121.76C2068.9 123.36 2068.26 125.493 2068.26 128.16C2068.36 130.827 2069.43 132.747 2071.46 133.92C2073.59 135.093 2076.84 135.68 2081.22 135.68C2086.55 135.68 2090.87 134.88 2094.18 133.28C2097.59 131.68 2099.3 129.387 2099.3 126.4C2099.3 125.12 2098.82 124.107 2097.86 123.36C2096.9 122.613 2095.51 122.24 2093.7 122.24H2078.34ZM2203.74 34.56C2217.29 34.56 2227.1 36.7467 2233.18 41.12C2239.26 45.3867 2242.3 50.88 2242.3 57.6C2242.3 59.6267 2242.09 61.4933 2241.66 63.2C2240.06 70.24 2235.58 75.3067 2228.22 78.4C2220.97 81.3867 2212.38 82.88 2202.46 82.88C2197.45 82.88 2192.75 82.56 2188.38 81.92C2188.27 87.4667 2189.77 91.36 2192.86 93.6C2195.95 95.84 2200.27 96.96 2205.82 96.96C2208.38 96.96 2210.83 96.6933 2213.18 96.16C2215.53 95.52 2218.51 94.6133 2222.14 93.44C2225.13 92.3733 2227.15 91.84 2228.22 91.84C2229.39 91.84 2229.98 92.5333 2229.98 93.92C2230.09 97.6533 2228.7 101.6 2225.82 105.76C2222.94 109.813 2218.67 113.28 2213.02 116.16C2207.37 119.04 2200.54 120.48 2192.54 120.48C2180.7 120.48 2170.99 117.493 2163.42 111.52C2155.85 105.547 2152.06 96.8533 2152.06 85.44C2152.06 82.24 2152.49 78.5067 2153.34 74.24C2156.01 61.12 2161.82 51.2533 2170.78 44.64C2179.85 37.92 2190.83 34.56 2203.74 34.56ZM2189.5 72.32C2189.93 72.4267 2190.51 72.48 2191.26 72.48C2195.74 72.48 2199.15 70.4 2201.5 66.24C2203.85 62.08 2204.97 57.44 2204.86 52.32C2204.75 49.3333 2203.9 47.84 2202.3 47.84C2201.13 47.84 2199.74 48.8 2198.14 50.72C2196.54 52.5333 2194.94 55.3067 2193.34 59.04C2191.85 62.7733 2190.57 67.2 2189.5 72.32Z" fill="#000000"/>
</svg>
