<svg width="509" height="112" viewBox="0 0 509 112" fill="none" xmlns="http://www.w3.org/2000/svg">
<path d="M35.24 34.24C36.6 34.64 37.48 35.4 37.88 36.52C38.28 37.56 38.4 38.68 38.24 39.88C37.76 42.36 36.4 43.88 34.16 44.44C32.88 44.76 31.56 44.92 30.2 44.92C28.92 44.92 27.6 44.96 26.24 45.04V72.76C26.24 74.68 26.12 76.64 25.88 78.64C25.88 79.36 25.68 80.12 25.28 80.92C25.12 81.32 25 81.56 24.92 81.64C24.92 81.8 24.84 82.04 24.68 82.36C24.2 83.24 23.56 83.96 22.76 84.52C21 85.48 19.12 85.72 17.12 85.24C15.92 85 15 84.6 14.36 84.04C13.64 83.48 13.12 82.8 12.8 82C12.64 81.6 12.52 81.2 12.44 80.8C12.36 80.4 12.24 80 12.08 79.6C12 79.2 11.92 78.84 11.84 78.52C11.84 78.12 11.84 77.8 11.84 77.56V70.6C11.84 66.44 11.84 62.12 11.84 57.64C11.92 53.16 11.96 48.84 11.96 44.68C10.12 44.6 8.2 44.56 6.2 44.56C4.28 44.48 2.88 44 2 43.12C1.52 42.64 1.2 42.04 1.04 41.32C0.88 40.52 0.8 39.72 0.8 38.92C0.88 38.12 1.04 37.4 1.28 36.76C1.52 36.04 1.84 35.52 2.24 35.2C3.28 34.24 4.2 33.72 5 33.64C5.88 33.48 6.96 33.36 8.24 33.28C8.4 33.28 8.92 33.28 9.8 33.28C10.76 33.2 11.36 33.16 11.6 33.16C11.68 30.44 11.76 27.72 11.84 25C11.92 22.28 12.16 19.8 12.56 17.56C13.04 15.24 13.72 13.24 14.6 11.56C15.56 9.8 17 8.48 18.92 7.6C21.24 6.55999 23.88 5.92 26.84 5.68C29.8 5.44 32.48 5.8 34.88 6.76C36 7.16 37.08 7.96 38.12 9.16C39.24 10.36 39.76 11.68 39.68 13.12C39.6 14.56 39.32 15.88 38.84 17.08C38.36 18.28 37.32 19.08 35.72 19.48C35 19.64 34.24 19.72 33.44 19.72C32.72 19.64 31.96 19.6 31.16 19.6C30.36 19.6 29.6 19.72 28.88 19.96C28.24 20.12 27.68 20.48 27.2 21.04C26.8 21.52 26.52 22.16 26.36 22.96C26.28 23.76 26.2 24.6 26.12 25.48C26.04 26.36 26 27.24 26 28.12C26.08 28.92 26.12 29.6 26.12 30.16V33.16C27.96 33.32 29.64 33.44 31.16 33.52C32.76 33.6 34.12 33.84 35.24 34.24ZM91.5528 56.44C91.3928 59.08 91.2328 61.76 91.0728 64.48C90.9128 67.12 90.4728 69.68 89.7528 72.16C89.1128 74.64 88.0728 76.88 86.6328 78.88C85.2728 80.88 83.3128 82.48 80.7528 83.68C78.5128 84.8 76.1128 85.56 73.5528 85.96C70.9928 86.44 68.4328 86.64 65.8728 86.56C63.3128 86.48 60.8328 86.08 58.4328 85.36C56.0328 84.72 53.8728 83.8 51.9528 82.6C50.0328 81.4 48.4728 79.84 47.2728 77.92C46.0728 76 45.1128 73.92 44.3928 71.68C43.7528 69.44 43.3128 67.12 43.0728 64.72C42.8328 62.32 42.6728 60.08 42.5928 58C42.2728 52.48 42.2728 47.04 42.5928 41.68C42.5928 40.64 42.5928 39.48 42.5928 38.2C42.5928 36.84 42.6728 35.52 42.8328 34.24C43.0728 32.96 43.4328 31.8 43.9128 30.76C44.3928 29.64 45.1928 28.8 46.3128 28.24C48.7128 26.96 50.9128 26.88 52.9128 28C54.9928 29.12 56.2328 31.44 56.6328 34.96C56.8728 36.8 56.9528 38.84 56.8728 41.08C56.8728 43.32 56.9528 45.36 57.1128 47.2C57.1928 49.92 57.2728 52.88 57.3528 56.08C57.4328 59.2 57.8728 62 58.6728 64.48C59.5528 66.96 60.9528 68.84 62.8728 70.12C64.8728 71.32 67.8328 71.36 71.7528 70.24C73.5928 69.68 74.7928 68.28 75.3528 66.04C75.9928 63.8 76.3128 60.48 76.3128 56.08C76.3128 54.16 76.2728 52.04 76.1928 49.72C76.1128 47.4 76.0728 45.12 76.0728 42.88C76.0728 40.56 76.1128 38.44 76.1928 36.52C76.3528 34.52 76.5928 33 76.9128 31.96C77.3128 30.52 78.1528 29.44 79.4328 28.72C80.7128 28 82.0728 27.64 83.5128 27.64C84.9528 27.56 86.3128 27.84 87.5928 28.48C88.8728 29.12 89.7528 30.16 90.2328 31.6C90.7128 32.88 91.0328 34.52 91.1928 36.52C91.4328 38.44 91.5928 40.56 91.6728 42.88C91.7528 45.12 91.7528 47.44 91.6728 49.84C91.6728 52.16 91.6328 54.36 91.5528 56.44ZM96.9106 42.16C96.9106 40.32 96.8706 38.36 96.7906 36.28C96.7906 34.2 97.1506 32.32 97.8706 30.64C98.5106 29.12 99.5506 28.04 100.991 27.4C102.511 26.68 103.991 26.52 105.431 26.92C106.871 27.16 107.991 27.6 108.791 28.24C109.591 28.88 110.151 29.64 110.471 30.52C110.871 31.32 111.111 32.28 111.191 33.4C111.271 34.44 111.351 35.48 111.431 36.52C112.231 35.08 113.231 33.92 114.431 33.04C115.631 32.16 116.871 31.44 118.151 30.88C119.431 30.32 120.631 29.92 121.751 29.68C122.951 29.44 123.871 29.32 124.511 29.32C127.551 29.32 130.551 30 133.511 31.36C136.551 32.64 139.071 34.48 141.071 36.88C142.191 38.32 143.031 39.84 143.591 41.44C144.231 42.96 144.671 44.56 144.911 46.24C145.231 47.92 145.431 49.64 145.511 51.4C145.591 53.08 145.671 54.8 145.751 56.56C146.151 61.68 146.151 66.76 145.751 71.8C145.671 72.84 145.631 74.04 145.631 75.4C145.631 76.76 145.511 78.12 145.271 79.48C145.111 80.76 144.751 81.92 144.191 82.96C143.711 83.92 142.871 84.52 141.671 84.76C139.991 85.16 138.591 85.24 137.471 85C136.431 84.84 135.591 84.48 134.951 83.92C134.311 83.36 133.831 82.64 133.511 81.76C133.191 80.88 132.911 79.88 132.671 78.76C132.511 77.88 132.351 76.88 132.191 75.76C132.111 74.56 132.031 73.36 131.951 72.16C131.951 70.96 131.911 69.8 131.831 68.68C131.831 67.48 131.831 66.4 131.831 65.44C131.831 63.92 131.791 62.24 131.711 60.4C131.631 58.56 131.631 56.84 131.711 55.24C131.711 51.48 130.711 48.64 128.711 46.72C126.791 44.72 124.151 43.88 120.791 44.2C118.231 44.52 115.991 45.56 114.071 47.32C112.151 49 111.231 51.2 111.311 53.92C111.311 54.96 111.311 55.92 111.311 56.8C111.311 57.68 111.271 58.56 111.191 59.44C111.191 60.32 111.191 61.28 111.191 62.32C111.191 63.36 111.191 64.52 111.191 65.8C111.191 68.44 111.191 71.24 111.191 74.2C111.191 77.08 110.831 79.44 110.111 81.28C109.471 83.2 108.391 84.52 106.871 85.24C105.351 85.96 103.551 85.76 101.471 84.64C100.591 84.16 99.8706 83.52 99.3106 82.72C98.8306 81.84 98.4306 80.92 98.1106 79.96C97.8706 79 97.7106 78.04 97.6306 77.08C97.5506 76.04 97.4706 75.08 97.3906 74.2C97.1506 71.56 96.9906 69.12 96.9106 66.88C96.9106 64.56 96.9106 62.08 96.9106 59.44V42.16ZM148.656 42.16C148.656 40.32 148.616 38.36 148.536 36.28C148.536 34.2 148.896 32.32 149.616 30.64C150.256 29.12 151.296 28.04 152.736 27.4C154.256 26.68 155.736 26.52 157.176 26.92C158.616 27.16 159.736 27.6 160.536 28.24C161.336 28.88 161.896 29.64 162.216 30.52C162.616 31.32 162.856 32.28 162.936 33.4C163.016 34.44 163.096 35.48 163.176 36.52C163.976 35.08 164.976 33.92 166.176 33.04C167.376 32.16 168.616 31.44 169.896 30.88C171.176 30.32 172.376 29.92 173.496 29.68C174.696 29.44 175.616 29.32 176.256 29.32C179.296 29.32 182.296 30 185.256 31.36C188.296 32.64 190.816 34.48 192.816 36.88C193.936 38.32 194.776 39.84 195.336 41.44C195.976 42.96 196.416 44.56 196.656 46.24C196.976 47.92 197.176 49.64 197.256 51.4C197.336 53.08 197.416 54.8 197.496 56.56C197.896 61.68 197.896 66.76 197.496 71.8C197.416 72.84 197.376 74.04 197.376 75.4C197.376 76.76 197.256 78.12 197.016 79.48C196.856 80.76 196.496 81.92 195.936 82.96C195.456 83.92 194.616 84.52 193.416 84.76C191.736 85.16 190.336 85.24 189.216 85C188.176 84.84 187.336 84.48 186.696 83.92C186.056 83.36 185.576 82.64 185.256 81.76C184.936 80.88 184.656 79.88 184.416 78.76C184.256 77.88 184.096 76.88 183.936 75.76C183.856 74.56 183.776 73.36 183.696 72.16C183.696 70.96 183.656 69.8 183.576 68.68C183.576 67.48 183.576 66.4 183.576 65.44C183.576 63.92 183.536 62.24 183.456 60.4C183.376 58.56 183.376 56.84 183.456 55.24C183.456 51.48 182.456 48.64 180.456 46.72C178.536 44.72 175.896 43.88 172.536 44.2C169.976 44.52 167.736 45.56 165.816 47.32C163.896 49 162.976 51.2 163.056 53.92C163.056 54.96 163.056 55.92 163.056 56.8C163.056 57.68 163.016 58.56 162.936 59.44C162.936 60.32 162.936 61.28 162.936 62.32C162.936 63.36 162.936 64.52 162.936 65.8C162.936 68.44 162.936 71.24 162.936 74.2C162.936 77.08 162.576 79.44 161.856 81.28C161.216 83.2 160.136 84.52 158.616 85.24C157.096 85.96 155.296 85.76 153.216 84.64C152.336 84.16 151.616 83.52 151.056 82.72C150.576 81.84 150.176 80.92 149.856 79.96C149.616 79 149.456 78.04 149.376 77.08C149.296 76.04 149.216 75.08 149.136 74.2C148.896 71.56 148.736 69.12 148.656 66.88C148.656 64.56 148.656 62.08 148.656 59.44V42.16ZM253.017 31.48C253.737 32.6 254.057 33.8 253.978 35.08C253.978 36.92 253.657 38.52 253.017 39.88C252.857 40.28 252.617 40.8 252.298 41.44C252.057 42.08 251.777 42.76 251.458 43.48C251.217 44.2 250.937 44.88 250.618 45.52C250.298 46.16 250.057 46.64 249.897 46.96L249.657 47.56C248.537 50.04 247.457 52.44 246.418 54.76C245.378 57.08 244.217 59.56 242.937 62.2C241.657 64.76 240.417 67.28 239.217 69.76C238.097 72.16 236.977 74.52 235.857 76.84C235.537 77.48 235.257 78.12 235.017 78.76C234.777 79.32 234.457 79.92 234.057 80.56L228.297 92.92C227.257 95 226.257 97.04 225.297 99.04C224.417 101.04 223.417 103.04 222.297 105.04C222.057 105.44 221.817 105.8 221.577 106.12C221.417 106.52 221.257 106.92 221.097 107.32C220.537 108.28 219.697 109.2 218.577 110.08C217.537 111.04 216.417 111.56 215.217 111.64C213.057 111.8 211.177 111.16 209.577 109.72C208.617 109.16 207.857 108.36 207.297 107.32C206.977 106.6 206.817 105.68 206.817 104.56C206.897 104.08 206.937 103.6 206.937 103.12C207.017 102.72 207.097 102.32 207.177 101.92C207.337 101.52 207.457 101.12 207.537 100.72C207.617 100.32 207.737 100 207.897 99.76C208.137 99.12 208.337 98.8 208.497 98.8L217.257 79.84C216.857 78.96 216.457 78.08 216.057 77.2C215.657 76.24 215.297 75.4 214.977 74.68C213.937 72.2 212.817 69.6 211.617 66.88C210.497 64.08 209.337 61.32 208.137 58.6C206.937 55.8 205.697 53.08 204.417 50.44C203.137 47.8 201.857 45.28 200.577 42.88C200.097 42.08 199.657 41.24 199.257 40.36C198.857 39.4 198.537 38.48 198.297 37.6C198.057 36.64 197.977 35.68 198.057 34.72C198.137 33.76 198.497 32.8 199.137 31.84C199.777 30.64 200.617 29.8 201.657 29.32C202.697 28.76 203.777 28.52 204.897 28.6C206.097 28.6 207.217 28.84 208.257 29.32C209.297 29.8 210.137 30.44 210.777 31.24C212.137 32.68 213.217 34.28 214.017 36.04C214.817 37.8 215.577 39.6 216.297 41.44C217.817 44.64 219.377 48 220.977 51.52C222.577 55.04 224.177 58.48 225.777 61.84L232.017 48.64C232.657 47.36 233.217 46.12 233.698 44.92C234.258 43.72 234.818 42.56 235.378 41.44C236.017 40.08 236.617 38.68 237.177 37.24C237.817 35.8 238.538 34.48 239.337 33.28C239.497 32.96 239.658 32.68 239.818 32.44C239.978 32.2 240.137 31.92 240.297 31.6C241.017 30.64 241.657 29.88 242.217 29.32C242.618 29 242.938 28.76 243.178 28.6C243.498 28.36 243.858 28.2 244.258 28.12C244.818 27.96 245.337 27.88 245.817 27.88C246.377 27.8 246.897 27.8 247.377 27.88C248.177 28.12 249.137 28.48 250.257 28.96C251.457 29.44 252.377 30.28 253.017 31.48ZM355.216 31C355.936 32.04 356.176 33.68 355.936 35.92C355.776 38.08 355.376 40.44 354.736 43C354.096 45.48 353.336 47.96 352.456 50.44C351.576 52.84 350.856 54.84 350.296 56.44C348.936 60.12 347.736 63.56 346.696 66.76C345.656 69.96 344.416 73.48 342.976 77.32C342.496 78.44 342.016 79.56 341.536 80.68C341.136 81.8 340.616 82.8 339.976 83.68C339.416 84.56 338.696 85.28 337.816 85.84C337.016 86.4 336.016 86.68 334.816 86.68C333.456 86.68 332.256 86.2 331.216 85.24C330.256 84.28 329.416 83.08 328.696 81.64C328.056 80.2 327.496 78.68 327.016 77.08C326.536 75.48 326.136 74.08 325.816 72.88C324.776 69.36 323.856 66.16 323.056 63.28C322.256 60.32 321.536 57.68 320.896 55.36C320.176 57.68 319.456 60.2 318.736 62.92C318.016 65.64 317.096 68.72 315.976 72.16C315.656 73.36 315.256 74.84 314.776 76.6C314.296 78.28 313.696 79.88 312.976 81.4C312.336 82.92 311.496 84.2 310.456 85.24C309.496 86.36 308.336 86.84 306.976 86.68C305.056 86.6 303.376 85.84 301.936 84.4C300.576 82.88 299.376 81.08 298.336 79C297.376 76.92 296.536 74.76 295.816 72.52C295.096 70.28 294.496 68.32 294.016 66.64C293.376 64.48 292.616 62.08 291.736 59.44C290.856 56.8 289.976 54.12 289.096 51.4C288.296 48.6 287.536 45.84 286.816 43.12C286.096 40.32 285.616 37.76 285.376 35.44C285.216 33.92 285.496 32.52 286.216 31.24C287.016 29.96 288.016 29.08 289.216 28.6C290.496 28.04 291.856 27.92 293.296 28.24C294.816 28.56 296.176 29.52 297.376 31.12C298.016 31.92 298.576 32.92 299.056 34.12C299.616 35.32 300.096 36.64 300.496 38.08C300.896 39.44 301.296 40.84 301.696 42.28C302.096 43.72 302.496 45.12 302.896 46.48C303.776 49.52 304.496 51.92 305.056 53.68C305.696 55.36 306.336 57.12 306.976 58.96C307.536 57.12 308.096 55.36 308.656 53.68C309.296 51.92 310.056 49.52 310.936 46.48C311.256 45.52 311.616 44.44 312.016 43.24C312.496 41.96 312.976 40.76 313.456 39.64C314.016 38.52 314.616 37.48 315.256 36.52C315.976 35.48 316.736 34.72 317.536 34.24C319.296 33.04 320.896 32.76 322.336 33.4C323.776 33.96 325.016 34.96 326.056 36.4C327.096 37.84 327.976 39.52 328.696 41.44C329.496 43.28 330.136 44.96 330.616 46.48C331.096 48.08 331.536 49.48 331.936 50.68C332.336 51.8 332.696 52.84 333.016 53.8C333.336 54.76 333.616 55.68 333.856 56.56C334.176 57.44 334.496 58.36 334.816 59.32C335.136 58.36 335.416 57.44 335.656 56.56C335.976 55.68 336.296 54.76 336.616 53.8C336.936 52.84 337.296 51.8 337.696 50.68C338.096 49.48 338.536 48.08 339.016 46.48C339.336 45.44 339.656 44.24 339.976 42.88C340.376 41.52 340.776 40.16 341.176 38.8C341.576 37.36 341.976 36 342.376 34.72C342.856 33.44 343.376 32.36 343.936 31.48C344.496 30.6 345.256 29.88 346.216 29.32C347.176 28.68 348.176 28.32 349.216 28.24C350.256 28.08 351.296 28.2 352.336 28.6C353.456 29 354.416 29.8 355.216 31ZM374.044 30.76C376.684 29.48 379.444 28.56 382.324 28C385.204 27.44 388.044 27.32 390.844 27.64C393.724 27.96 396.484 28.72 399.124 29.92C401.844 31.12 404.324 32.8 406.564 34.96C408.404 36.8 410.004 39.04 411.364 41.68C412.724 44.24 413.724 46.76 414.364 49.24C415.724 53.64 415.924 58.08 414.964 62.56C414.004 67.04 412.364 71.2 410.044 75.04C408.924 76.8 407.524 78.4 405.844 79.84C404.244 81.2 402.524 82.32 400.684 83.2C398.284 84.32 395.684 85.08 392.884 85.48C390.084 85.96 387.364 86.08 384.724 85.84C379.924 85.6 375.684 84.4 372.004 82.24C368.404 80.08 365.484 77.32 363.244 73.96C361.084 70.6 359.644 66.8 358.924 62.56C358.284 58.24 358.564 53.84 359.764 49.36C361.044 44.56 362.884 40.68 365.284 37.72C367.764 34.68 370.684 32.36 374.044 30.76ZM377.644 46.84C376.444 47.96 375.524 49.36 374.884 51.04C374.244 52.72 373.844 54.48 373.684 56.32C373.524 58.08 373.644 59.88 374.044 61.72C374.524 63.48 375.244 65.08 376.204 66.52C377.004 67.72 378.444 68.72 380.524 69.52C382.604 70.32 384.764 70.8 387.004 70.96C389.564 71.12 391.804 70.44 393.724 68.92C395.644 67.32 397.084 65.36 398.044 63.04C399.084 60.72 399.564 58.2 399.484 55.48C399.404 52.76 398.684 50.28 397.324 48.04C396.364 46.44 395.004 45.28 393.244 44.56C391.564 43.76 389.764 43.36 387.844 43.36C386.004 43.28 384.164 43.56 382.324 44.2C380.484 44.76 378.924 45.64 377.644 46.84ZM418.047 42.52C418.047 41.56 418.047 40.48 418.047 39.28C418.047 38 418.087 36.72 418.167 35.44C418.247 34.08 418.367 32.8 418.527 31.6C418.767 30.32 419.087 29.2 419.487 28.24C420.127 26.8 421.127 25.84 422.487 25.36C423.847 24.8 425.327 24.56 426.927 24.64C428.607 24.64 429.927 24.92 430.887 25.48C431.847 26.04 432.567 26.8 433.047 27.76C433.527 28.64 433.807 29.68 433.887 30.88C434.047 32 434.127 33.2 434.127 34.48C434.847 33.2 435.807 32.16 437.007 31.36C438.287 30.56 439.567 29.92 440.847 29.44C442.127 28.96 443.287 28.64 444.327 28.48C445.367 28.24 445.967 28.12 446.127 28.12C448.127 27.96 449.927 27.92 451.527 28C453.207 28.08 455.047 28.44 457.047 29.08C458.327 29.56 459.647 30.24 461.007 31.12C462.367 31.92 463.567 32.88 464.607 34C465.647 35.12 466.327 36.36 466.647 37.72C467.047 39 466.887 40.36 466.167 41.8C465.047 43.8 463.807 44.8 462.447 44.8C461.087 44.72 459.607 44.48 458.007 44.08C457.127 43.92 456.087 43.56 454.887 43C453.687 42.44 452.647 42.08 451.767 41.92C449.047 41.52 446.647 41.72 444.567 42.52C442.487 43.32 440.687 44.28 439.167 45.4C437.407 46.76 435.887 48.32 434.607 50.08V67.36C434.607 69.52 434.567 71.76 434.487 74.08C434.487 76.4 434.167 78.52 433.527 80.44C432.967 82.28 431.967 83.8 430.527 85C429.167 86.12 427.167 86.6 424.527 86.44C423.087 86.36 421.807 85.68 420.687 84.4C419.567 83.04 418.887 81.72 418.647 80.44C418.487 79.24 418.367 77.8 418.287 76.12C418.207 74.44 418.127 72.68 418.047 70.84C418.047 69 418.047 67.16 418.047 65.32C418.047 63.4 418.047 61.64 418.047 60.04V42.52ZM498.323 1.11999C499.843 0.719993 501.163 0.679994 502.283 0.999994C503.483 1.24 504.483 1.76 505.283 2.56C506.163 3.35999 506.803 4.35999 507.203 5.55999C507.683 6.76 507.923 8.08 507.923 9.52C508.003 13.52 508.003 16.64 507.923 18.88C507.923 21.12 507.923 23.08 507.923 24.76V61.6C507.923 65.92 507.923 69.52 507.923 72.4C507.923 75.28 507.763 77.64 507.443 79.48C507.203 81.24 506.723 82.56 506.003 83.44C505.363 84.32 504.363 84.92 503.003 85.24C501.643 85.64 499.843 85.84 497.603 85.84C495.443 85.84 492.723 85.84 489.443 85.84C480.803 85.84 473.963 83.8 468.923 79.72C463.963 75.64 461.323 69.16 461.003 60.28C460.843 56.44 461.323 52.92 462.443 49.72C463.563 46.52 465.203 43.8 467.363 41.56C469.603 39.24 472.323 37.48 475.523 36.28C478.803 35 482.523 34.4 486.683 34.48H493.283V13C493.283 11.72 493.283 10.48 493.283 9.27999C493.283 8 493.403 6.84 493.643 5.8C493.883 4.68 494.363 3.72 495.083 2.92C495.803 2.12 496.883 1.52 498.323 1.11999ZM477.443 67.72C479.123 70.04 482.163 71.32 486.563 71.56C487.443 71.64 488.283 71.68 489.083 71.68C489.883 71.6 490.603 71.48 491.243 71.32C491.963 71.24 492.643 71.12 493.283 70.96V48.76C490.483 48.28 487.923 48 485.603 47.92C483.363 47.76 481.123 48.56 478.883 50.32C477.683 51.28 476.763 52.52 476.123 54.04C475.483 55.48 475.123 57.04 475.043 58.72C474.963 60.32 475.123 61.92 475.523 63.52C475.923 65.12 476.563 66.52 477.443 67.72Z" fill="white"/>
</svg>
